/* XPM */
static char *c4fa64c39f7543fcd56b6419ef27f5287E4z5VINfwHCdXSv[] = {
/* columns rows colors chars-per-pixel */
"64 64 161 2 ",
"   c #0B0100",
".  c #130700",
"X  c #130900",
"o  c #1C0F02",
"O  c #1C1004",
"+  c #2D1D0E",
"@  c #2C1F12",
"#  c #2F2114",
"$  c #332616",
"%  c #372718",
"&  c #3B2B1C",
"*  c #39301F",
"=  c #362C22",
"-  c #3D2F21",
";  c #3E3225",
":  c #443424",
">  c #493326",
",  c #463629",
"<  c #483628",
"1  c #46392B",
"2  c #4C3C2C",
"3  c #513D2E",
"4  c #463E31",
"5  c #4D3E31",
"6  c #523E31",
"7  c #4A402F",
"8  c #52422E",
"9  c #4E4232",
"0  c #544434",
"q  c #5A4436",
"w  c #564936",
"e  c #594937",
"r  c #564639",
"t  c #5A4639",
"y  c #564A3A",
"u  c #5B4B3C",
"i  c #5D503E",
"p  c #614D3E",
"a  c #64513E",
"s  c #5E4E41",
"d  c #5E5141",
"f  c #5E5549",
"g  c #624E42",
"h  c #674E49",
"j  c #635344",
"k  c #695545",
"l  c #655846",
"z  c #695A47",
"x  c #665648",
"c  c #6A564A",
"v  c #665A4A",
"b  c #6B5B4B",
"n  c #715E4E",
"m  c #675F52",
"M  c #6E5E50",
"N  c #705750",
"B  c #725E51",
"V  c #785D56",
"C  c #785C58",
"Z  c #6D604F",
"A  c #72614F",
"S  c #6E6252",
"D  c #736353",
"F  c #796456",
"G  c #756957",
"H  c #796A56",
"J  c #776758",
"K  c #7A655A",
"L  c #756A5B",
"P  c #786859",
"I  c #796959",
"U  c #786858",
"Y  c #79695A",
"T  c #7A685A",
"R  c #786B5B",
"E  c #7A6A5A",
"W  c #7A6A5B",
"Q  c #7B6B5B",
"!  c #7C6D5A",
"~  c #7F695C",
"^  c #7E6B5D",
"/  c #796C5C",
"(  c #7D6D5D",
")  c #7D6D5E",
"_  c #7E6E5E",
"`  c #7E6E5F",
"'  c #7B6B5B",
"]  c #7F705D",
"[  c #7F6F60",
"{  c #7C6D60",
"}  c #7E7162",
"|  c #806A5E",
" . c #806460",
".. c #806E60",
"X. c #826C62",
"o. c #886F68",
"O. c #817162",
"+. c #837062",
"@. c #837363",
"#. c #827262",
"$. c #837364",
"%. c #847465",
"&. c #877767",
"*. c #837363",
"=. c #887567",
"-. c #887966",
";. c #847669",
":. c #8B7568",
">. c #897669",
",. c #857969",
"<. c #887868",
"1. c #897969",
"2. c #887869",
"3. c #8B7B6B",
"4. c #8C796B",
"5. c #8B7B6C",
"6. c #8C7A6C",
"7. c #8C7C6D",
"8. c #8D7D6E",
"9. c #8B7B6C",
"0. c #907F6F",
"q. c #867C72",
"w. c #8F7F71",
"e. c #907770",
"r. c #937C73",
"t. c #967D78",
"y. c #91806E",
"u. c #918171",
"i. c #938373",
"p. c #978174",
"a. c #948474",
"s. c #978777",
"d. c #948374",
"f. c #998376",
"g. c #9A8477",
"h. c #978778",
"j. c #9B8578",
"k. c #9A827B",
"l. c #958A7C",
"z. c #9B8B7B",
"x. c #9C8C7D",
"c. c #9E8E7E",
"v. c #9F8F7F",
"b. c #9B8B7C",
"n. c #A28E7F",
"m. c #A09080",
"M. c #A29282",
"N. c #A59585",
"B. c #A79787",
"V. c #A29283",
"C. c #A2968A",
"Z. c #A8968A",
"A. c #A19A8A",
"S. c #A89888",
"D. c #AB9B8B",
"F. c #AC9C8C",
"G. c #AB9A8B",
"H. c #B09F8F",
"J. c #B5A595",
"K. c #B3A393",
"L. c #B9A99A",
/* pixels */
"b u j b H z 2 u u z z e 8 r r 2 g F T j 3 0 b ~ f.p.j.:.j r k F D z u u D O.P x z G e 0 j u x z j ( j D z j j j x G u D z ( ( P ",
"b z A j u e 8 z D ! H z u e 0 2 p t 6 > > 3 r t u t g g q q g b j D D b b e 2 0 j %.z 0 e j x 0 2 x 0 z z b M D 0 b s P P P b x ",
"e j G b z A z A x z b z a u e e n u 2 3 r u u u 0 2 3 t j x k k z G x x P x 0 j D i.P j k b D e u z 2 e r u r u j D r j b z j z ",
"] z D G ] -.D z i j b D D Z A P j u t u e 0 0 u ~ F B P 4.6.+...b ( x u O.O.z P <.<.G ( %.P ( G z b r z G 8.8.x.3.8.s u b b G 3.",
"N.z e u u u 2 : 2 2 r u e r r e u u g x g 0 6 e 0 0 2 0 c z u j e <.G e G ( b P N.x.a.S.J.D.N.i.x j 2 e u x 0 s j x 2 2 u r x b ",
"<.0 e z j e 2 2 2 2 r r 0 2 2 0 r 2 2 r e 0 : & 2 0 2 5 z x r j e P u & u %.8.8.<.a.a.m.S.F.m.b u e r z b G 0 j j x x j z x O.P ",
"j : z %.[ $.G x z D P D D G W J P G D D L P b u : 0 2 9 b j 2 y j z 0 % e <.i.<.<.a.a.m.x.x.x.D ( D b D z z : r x x D j e u %.z ",
"2 + 2 u u D j - 2 u s r 0 u j u u l l u y u y 2 1 y 9 e / S 0 d e D ' b x x x u b u u D j r z u j 0 5 r e b r P x z <.J s e $.5 ",
"5 0 5 2 : j : 0 u 2 u j 2 $.: 2 2 0 l D b l y 1 9 0 u b b d 0 9 G P i.( 2 u G 0 j u j z u 2 0 x e e e r r r e u 0 j P u 2 e O.: ",
": 0 e u 0 x , r 0 2 u u u M 2 u M D } O.b l l d 2 9 u l l u d l b D %.P j b G e e j b G z e r u 2 0 e e r 0 0 r c P W 0 e 2 u + ",
"3.z.x.d.....j M $.3.2.W ..c u b %.<.a.8.b e j z x b G P M j z ( x z D G ( i.x.a.x j x z D b e 2 j u r 2 : 2 j D h.z.( 2 P G m.z.",
"s x x u t r 6 s r [ s r s 6 0 u M D :.3.b r u c g j b D j 0 r z u x u u D G b G z z x j j x j e u x D b j r r u x s u & c r ( b ",
"s s r 6 s s s j s d.r s 0 x x x u t b ..B g c D u 0 t u t 2 6 j x D b b O.D u x j D G z e e z G b G ( J x e 0 r b e b j x 0 ( u ",
"M M s j { c m g x d.r s 1 x s u ~ j c ' B j c F F j u j u 0 t b j z u r x x j D P b x z G P D z D D M x u j b P M u b D e r %.z ",
"r u 0 s ;.m J x r j 5 s 0 c m B j.F n | D g k B B g p c g 3 3 g <.%.b r u z b G a.D r j ( ( x 2 , r x M D b x x e z D ( u r r & ",
"r t 5 5 M 5 r 1 r ; 2 r 5 : 5 t 6.c c | F j k D t q j F B t 0 j e u e 0 u b z u a.P x x x r 2 2 : 2 0 e t 0 2 2 0 D 0 u 2 r 2 0 ",
"0 , 1 1 m 9 4 5 = ; r v s 1 5 x e.t.V B K c k k c t G n 4.e u 3 j : z j z j j b O.r u D u 0 u r 2 0 0 6 0 u u r r u e 2 : 6 u u ",
"D u s M l.} m f 9 m ;.,.[ { { { t.k. .V N g B F g t b ' @.j e e G b i.D x j J 8.j % : z %.a.$.2 u j B b u u x k u g u 6 0 j B D ",
"s u 5 = 5 1 4 9 y f f 9 , 5 s x h C F K k p F F c g g A n k a b e x 2.x u s x e % , j u : 0 j 2 0 0 c B u u B B e e 0 : < 0 u g ",
"@ 0 s 5 y f v d v v S { M s s M 6 h V  .g g  .K F j j b F n b n 2 j O.u e j x : 5 r e 2 % 2 r , r : 0 x j z G b u u t 2 : 2 0 t ",
"b D j r y d 9 ; y y d M b x M ..{ X.X. .g g =.( b e b z y.H H j P a.z.e & & j 5 2 2 2 e x M z e B g j B b D K b c n B z j c D ~ ",
"..b 0 j x l G A./ } { b M w.Z.F.X.e.o.K c k P n b 0 p 0 O.b ! z b W P u x ( J.S.z.x.m.z.P e 5 e b G K B z b B K b G ~ ~ G F P ( ",
"j x s J d 9 9 / ; 9 d y r x j 0 c :...~ K b B x D u u 0 z x D Z x s 0 , t r D 0 0 2 2 0 j j j z u P M t x z x G M D G P G b x s ",
"g B r r 2 d 9 9 9 9 r d u r 0 0 F g.=.F K B F J z b D ( W G l j x x s s x r J x r u r r j j r r x %.x 2 z J j z G D D W O.J x r ",
"u u u e 0 2 0 u S b b D } <.:.%.r.n.4.:.G u z u u b @ ( d 0 s y 0 2 5 e s j j z G J D M W 3.3.( } / b y r j l u e u u r 0 l S d ",
"e t r t r r u l u u u x z B F F ' | ..D b z j u e r : L x l s 5 s e r e j j e 0 2 2 2 5 u z j 2 0 9 2 2 2 2 9 0 l y y d u d l l ",
"t 0 0 r e u i l 0 r e u p j k b j p F p g G u u 0 - 0 M M ;.;.v 2 2 , 2 j D z r x u 2 : 2 e r 2 9 1 2 0 9 : 2 u l 9 y S S d d l ",
"p r r u j u e y 0 y u u u g j k k A +.n b ' b l 2 $ : 1 9 S C.{ b b z x D $.P j D z e 2 0 e e 0 b l u y 9 2 7 y d 0 l } / b b M ",
"k p p x b j w 0 0 0 0 e u u e q u H G D k j b j 1 & o   . @ l.v s x s r e x s 2 2 e x b z x s e l d y 1 1 9 9 1 9 2 y d y u d y ",
"k a k A D b j u e w w e u u q 0 8 A z A j 2 z u 2 1       . q.v x b b x x z j e 2 e z b z j j l 2 9 9 1 9 d d 0 y y y 1 ; 9 d 0 ",
"j p k A D A b z a j j j a p p p k n A F b u x b 5 5 O   X = q.L D D D b g 0 : & 0 r e e 0 0 e l y y u u l b S D D D D l y l S l ",
"a p j b n b b b j z A b j p p j j 3 j p w r : u 2 1 # o @ s { L b z b G G j r 2 0 r u x x x x b D l l l x l D ,.d d l l y e u 0 ",
"z e r e 0 r z G z F D D x e j r 2 e u r 0 r u e : x D M 5 x d 0 2.j 2 u D b e 0 j x u 2 D x j e p z e x D j j u 2 r F O.x u z x ",
"j z b x j P O.n A G x j u e j r 2 r r 0 0 u x z P O.b x 0 j j z u u j j r 2 0 x z u 0 2 b u u z j B n K K n n u p k O.=.b p k g ",
"P b p 2 2 b O.D P G e r e e j 0 0 r r 0 0 s b G 2.<.x z j s : r 2 0 0 r r u j z j 2 : 2 x r e z ( P n b u x %.( n P i.z.<.=.0.8.",
"L.4.x e r j G ( b b r e j j b j e e r 0 0 u z D $.w.b b b x & : r 2 : 2 j G b u j e u b ( D b D x p b O.j e ( P D ( i.z.z.N.H.K.",
"O.j 0 r u x G G u z j x b b ( G j u u e u j z D i.m.P x x b 0 u r e e 0 e x x e : 2 0 j j z j r x 0 j | e : D %.=.i.a.a.n.S.H.K.",
"a.8.O.b j D D r z P D D z x D b b z x c b b D P <.z.G j e z r u 0 u u e u x z x e u j z u G G z ' j e b 2 % b 8.O.8.=.O.8.a.i.i.",
"0 r e 0 r D %.P D P z j r 2 u e b x j x z z b G O.[ b b u j 2 2 e e r e x z x j u r r c 0 x z z u x b %.( j j u e z u e b D x j ",
"u 0 e j e e x z j x 0 2 : : u e j r 0 0 0 0 r j a.( x P j j 0 0 u u u u r 0 0 0 x r r P e j z D r b b ( <.P z 0 r z u r b b e 0 ",
"x u r e u u j x j j 2 r : 0 2 0 5 2 0 e - x e 2 e e r e j z j e z b D b u 2 2 r 0 j x e e z z u l d u D ,.S u D } j 0 d Z l u 0 ",
"2 0 j P 9.9.%.( %.8.O.D j D G G P x W 8.P W b M 2 r u u e e j b z b D D x r 0 0 u j a 0 0 j D G H D b l b S %.M.l.<.Z u z L D d ",
"j e 0 r e e r 0 2 u j : : 2 u r u : e r 0 5 r j 0 0 u j u r e x D D D D b j u u z G ( ( D z x x : 2 i j i l b l j l z l L *.D e ",
"2 2 r a j e 0 0 : 2 u : 2 2 u 0 z j G 2 r u D G D u 0 j b j r r G b z z z x x b u u j x j j D <.R j d l j D ( b S u 9 y u 0 9 0 ",
"r r e e 0 2 2 0 j e j 0 j r j e j x P 5 r r e u 8.z 0 s b z u r z j j x z z z b x j j x j j G 8.} i w i y u l l S d 0 y y 7 2 0 ",
"0 0 2 8 r z <.N.%.D x x G P O.O.D x z e j e u ( <.D j j x j j j e u z G P D z x D G ( O.P z x Z l v %.l.,.b d d 9 d l i u l d w ",
"0 0 0 r 0 2 2 0 j u 2 r j ( P D M x u e j M D V.2.%.$.%.$.( D z 0 u b O.O.G z x u u u u u j b R d H %.%.R v l Z G H z 2 : 0 l l ",
"D x r 0 0 8 0 r 2 e 2 r r P z r r b j e u O.D 8.a.x.S.K.L.D.<.x 2 e z P P b x j : r x b b z j u d R H l Z Z d d l d d l l i b %.",
"G j s 2 u e j r e r 0 r e 2 2 j j u u x z b %.m.z.i.z.F.K.i.b e u u j b F D b z r 0 0 x x j z u z D z b D L e / x x z b D S b b ",
"D b W D $.G b r 2 r u x z e 5 e x x x j j z b D i.a.x.m.x.a.O.G b z z b G D z j D D O.%.%.<.%.P x j z b x <.D z G O.<.( z u x G ",
"j e r 2 u j b z %.%.J D D z u e r j j e x G P b 0 x z u r e u e 0 2 2 r u j u r e e G x j D a x u r x b j a.%.e j j j r 2 : 2 0 ",
"r r r r s x b x b z r 0 z D j e z z j e e j x x j z b u 0 r u x u e r r r r 0 2 r r D 0 2 x 2 x e e x b z i.G r u e r 0 2 2 0 r ",
"z z x x z G D b b z u x %.8.D u z j u u r 2 r x G b b z u 0 0 u 0 e e 0 9 r e e 2 r b 2 2 x 2 b x z x b D P 2 r z P O.G u 0 u D ",
"j j 0 u u D b z W D u x O.%.b j D b D G x r j P %.G D D b u r u 2 0 0 2 < 0 e r u z P x b G x 8.b D x z z u + r e x b x e 0 r j ",
"2 r r D G O.x 0 %.W M W a.x.m.F.S.S.x.%.z r e x P b x j u e e r ( P z e r u u 0 e j r 2 e 0 r O.x u e x r 2 % e 0 2 2 0 r e r 0 ",
"D b r j u G u r P P P 3.z.i.d.S.K.J.v.G e r u j D G z e u z b x D b j e z ( ( A ( ( e 2 e 2 u r.e : 0 j & 0 0 u 2 0 e r 2 2 0 e ",
"u j x j u x r + G O.8.i.i.i.b.N.F.m.<.b u u x z G D b G %...b b b u 0 r e u u u e j P O.P 8.N.x.u u G <.O.P ( %.8.<.P z b O.P 0 ",
"x x x x z P D 0 x b D D b b D P G n b D z u u x r u j z D x 0 0 e z b j e u z D j s x z e r e r 0 0 x ( P b z x x z j r u b x 2 ",
"e r e u x ( %.D u u u u u g x z 0 2 r z z r 0 e e j j j j 0 : 2 : j z e 2 e x x r r 0 0 e e j D j r j D b j e 0 r u 2 2 z D u 0 ",
"b b b b z P 2.[ x j s u j z b D j r 0 e e 0 2 2 2 r e u u 2 : 2 0 r 0 2 8 e e 0 r x u 2 e r 0 j z u u x j u u e r e : : D P u e ",
"P G W D s u x x b z j u s j x z D z r 2 0 j u 2 0 j b | <.P x x u 2 : 2 r r 0 0 j %.<.G G b e r e r e u r r j j j b e r D G j b ",
"s j b z r 2 r e j u r r r u j x x x e 0 u G D e 0 0 2 0 u r 2 2 r : : 2 0 : 2 u : e u r e j u u e u z z e 0 r 0 D 8.%.b x u e z ",
"u u z D j u j x r r 0 0 0 e j x j j j j b P G z j u 2 : 0 2 2 r e r r e r 0 r j z r 0 e e u x z x z G G j e j e z ( ( x e u j e ",
"z u x M j e e r u u r 0 2 5 r e z z z D G D D D 2 0 r u z x e j P G D b D G b j b : 2 D D u e 0 u j b D x b ( ( z b D b ( x.z.P "
};
