/* XPM */
static char *_7f579a960154fba8aecd53beb846244x1ks2K9P7wF2LsPH[] = {
/* columns rows colors chars-per-pixel */
"92 64 236 2 ",
"   c #362B32",
".  c #393639",
"X  c #31262A",
"o  c #2B1F26",
"O  c #46373B",
"+  c #4E343A",
"@  c #3B413F",
"#  c #4B433E",
"$  c #3E3C42",
"%  c #473B43",
"&  c #523C44",
"*  c #583D47",
"=  c #3A4445",
"-  c #4C4343",
";  c #4B444A",
":  c #454A4B",
">  c #4C4C4D",
",  c #464646",
"<  c #534445",
"1  c #53454A",
"2  c #5C444B",
"3  c #534C4C",
"4  c #5B4C4D",
"5  c #594844",
"6  c #4D524C",
"7  c #56534C",
"8  c #4D4C52",
"9  c #484950",
"0  c #544D52",
"q  c #5C4D53",
"w  c #594B55",
"e  c #4C5353",
"r  c #4A5757",
"t  c #555354",
"y  c #5C5455",
"u  c #5B5A55",
"i  c #54545A",
"p  c #5C545A",
"a  c #545B5B",
"s  c #5C5B5B",
"d  c #555A56",
"f  c #65484B",
"g  c #644C53",
"h  c #6B4D53",
"j  c #674A55",
"k  c #774B56",
"l  c #645354",
"z  c #6B5455",
"x  c #635A55",
"c  c #62555B",
"v  c #6B555B",
"b  c #635B5C",
"n  c #6B5C5B",
"m  c #6B5A55",
"M  c #735456",
"N  c #73555B",
"B  c #735B5C",
"V  c #7B5C5D",
"C  c #795758",
"Z  c #684F4E",
"A  c #5D625F",
"S  c #63615D",
"D  c #6B615D",
"F  c #73635E",
"G  c #7C625D",
"H  c #78695F",
"J  c #5C5C62",
"K  c #565C62",
"L  c #645C62",
"P  c #6B5D63",
"I  c #685863",
"U  c #735C63",
"Y  c #7B5D63",
"T  c #775A66",
"R  c #5D6262",
"E  c #586565",
"W  c #646364",
"Q  c #6C6363",
"!  c #6C6965",
"~  c #656469",
"^  c #6C646A",
"/  c #656A6B",
"(  c #6C6B6C",
")  c #646B65",
"_  c #736464",
"`  c #7B6465",
"'  c #746966",
"]  c #7A6A66",
"[  c #73646A",
"{  c #7C646A",
"}  c #746B6B",
"|  c #7B6C6C",
" . c #6C726C",
".. c #73726D",
"X. c #7B726E",
"o. c #6D6C72",
"O. c #676C71",
"+. c #746C72",
"@. c #7B6D72",
"#. c #796671",
"$. c #6D7374",
"%. c #757474",
"&. c #7C7374",
"*. c #7C7A76",
"=. c #75747A",
"-. c #7C747A",
";. c #7C7B7B",
":. c #747978",
">. c #845859",
",. c #8E5756",
"<. c #86635E",
"1. c #95635D",
"2. c #845D66",
"3. c #836464",
"4. c #83656A",
"5. c #846B6C",
"6. c #8B6C6C",
"7. c #8A6665",
"8. c #936C6C",
"9. c #966866",
"0. c #82726D",
"q. c #8B736D",
"w. c #98726E",
"e. c #836D73",
"r. c #8C6D73",
"t. c #856976",
"y. c #946D74",
"u. c #847374",
"i. c #8B7374",
"p. c #837975",
"a. c #8B7A76",
"s. c #84757B",
"d. c #8C747A",
"f. c #837B7B",
"g. c #8B7B7C",
"h. c #937374",
"j. c #937A75",
"k. c #94757B",
"l. c #937B7C",
"z. c #9B7C7C",
"x. c #9C7576",
"c. c #A66C6A",
"v. c #A47C7C",
"b. c #A77776",
"n. c #AE7571",
"m. c #A55E5A",
"M. c #7D817C",
"N. c #84817E",
"B. c #8B817C",
"V. c #93827D",
"C. c #9A817E",
"Z. c #968275",
"A. c #A4827C",
"S. c #BB817D",
"D. c #7D7C82",
"F. c #747B82",
"G. c #847C82",
"H. c #8B7C82",
"J. c #867882",
"K. c #937D82",
"L. c #9B7D82",
"P. c #987885",
"I. c #A37C82",
"U. c #A67D86",
"Y. c #7E8385",
"T. c #848383",
"R. c #8C8383",
"E. c #8A8986",
"W. c #8C848B",
"Q. c #8C8A8A",
"!. c #858489",
"~. c #948383",
"^. c #9B8384",
"/. c #9C8A85",
"(. c #94858A",
"). c #9C858A",
"_. c #948B8B",
"`. c #9B8C8D",
"'. c #938986",
"]. c #98928E",
"[. c #8B8C92",
"{. c #948C92",
"}. c #9C8D92",
"|. c #9A8792",
" X c #949393",
".X c #9C9294",
"XX c #9D9A9B",
"oX c #999599",
"OX c #8E9291",
"+X c #A38384",
"@X c #A3858A",
"#X c #A38C8C",
"$X c #AB8C8C",
"%X c #A98786",
"&X c #A6918D",
"*X c #A48D92",
"=X c #AC8D93",
"-X c #A58694",
";X c #B58D95",
":X c #A39294",
">X c #AB9393",
",X c #A4959B",
"<X c #AB959A",
"1X c #A49A9C",
"2X c #AC9A9C",
"3X c #AC9A94",
"4X c #B39494",
"5X c #B39B9B",
"6X c #B99899",
"7X c #B38C8A",
"8X c #9DA09D",
"9X c #A7A29C",
"0X c #B6A19D",
"qX c #9F9AA1",
"wX c #A99DA2",
"eX c #B59EA2",
"rX c #9DA5AA",
"tX c #ACA3A3",
"yX c #A8A6A7",
"uX c #B4A4A5",
"iX c #BCA3A4",
"pX c #B6A8AA",
"aX c #B9ADB3",
"sX c #B9B4B2",
"dX c #AAAEB1",
"fX c #C29C9B",
"gX c #C28D87",
"hX c #C6A49C",
"jX c #C5A7A8",
"kX c #C6B6B8",
"lX c #CFB0B0",
"zX c #D1AEAE",
"xX c #D3BCC4",
"cX c #E0BBC2",
"vX c #D2C8C8",
"bX c #ECD6D9",
/* pixels */
"J J E / O.E K a O.$.:.:.=.=.=.=.( ) / $.:.%.%.%.%.! L W (  . .) s ~ ( ( ~ W W ~ ( %.;.;.;.%.W 3 t ) %.! u 7 7 6 6 S  .! ) ( ;.T.( s W ~ u u W W ^ u , . , e e : = e d d i J / / R / ( W ",
"i i K E E r e e K E / / / ( ~ J a d a A W S L Q W x t u A R a e t t t t p u s S 3 u W W W b 0 # - t u 6 # 6 7 7 6 u S A u y s s o.u t y 0 y b u b u t t u u 6 = , e d d s W / / s R J t ",
"$ = > d a r r r d a a i i s s t u d u s u y y b x x b b )  .) d u u u u b S b s s Q ! } } } Q b Q ! Q 7 - 6 6 6 u A A t > 3 0 t ~ > > t u W } W y t > ; , : , @ : e d s R / ( ( ) ( ~ s ",
"t t s / :.:.:.:.( ( / s p b ^ ^ S S S S u y x ! ' X.} ! ..*. .s b S Q ! } } ! Q S b x x Q ! Q S y b S x x S S u u u S S W b s p i ; 3 b Q } } Q b s y > , : > > : 6 t d R W W R s A s t ",
"t > > u W A d 6 s W ~ u 3 3 y c S S S x 4 4 x ' &.&.} Q Q ! s 3 y x D Q D Q ' } } D x x D ! ' Q > 3 3 7 4 7 3 # O - u } &.+.L p s t y b s u c y 0 p s u t 6 : , > > 6 t d u t t p p p p ",
"Q b u S ) S u 7 > u W b 0 < - - x x D D x x n ' | ' Q Q Q ! Q S ' ' Q x 4 4 x Q x 4 - < 3 4 4 4 Q S x 4 3 < # # - - 3 x ^ ^ ^ ( ( s b s 0 3 c b 3 y y t > > : : d t d s s u u s p p s L ",
"x y u S b u t t S } %.X.| ' Q x x D } X.X.] ] X.] F _ X.p.p.p.B.'.g.u.` n x m D ] F _ ' _ D D Q ' Q D D D _ ' ' ' n y y c b [ &.( b L L p b [ } L W W u u s A A s u s S s u s W 3 3 y S ",
"Q ' } ..! S S Q ..} ' ' | u.| _ n ` p.'.~.g.p.p.u.' ' g.V.p.p.V.~.V.g.a.p.0.] ' F ' X.p.] D D ' X.} } } ' ' ' ' u.] ' ' ^ b L L ^ b W ^ P W } } 3 c W Q ~ W d > t t t y t > t S y u Q %.",
"p.' _ x X.x S ! Q X.' D ' ] ` ] ` ] | 0.a.a.u.] a.0.` ` 0.B.a.] a.0.0.0.0.| ` F x 4 F X.D D F x b Q ' } ] | ] ] g.p.| ] @.@.^ p W b b W } @.&.s.[ ! u y u t e A , u S 3 - > 3 > 3 u ' -.",
"n x x y } x b ! ' X.' D n n F u.l.i.| ` ` ] X.0.u.g.B.u.| 0.u.u.V./.`.^.~.~.V.a.| _ X.a.' ' ' D } ..%.X.] ] | 0.u.u.| ' P b t ; t 3 3 y p c b P ^ L L ! ^ W d t u u s b Q ! b > u b ' } ",
"Q Q ' ' p.! ! X.f.f.&.X.u.u.i.^.`.~.a.0.| u.g.'.`.].`./.`.#X#X^.*X5X5X:X^.~.g.u.g.u.f.B.u.X.p.&.&.*.p.X.F m m m | 0.u.| } } ( ^ ( ^ [ } } } @.&.H.} } ^ 0 > s u Q b u S } } x 1 } | X.| ",
"x D Q Q } Q D ..} X.' ' g.~.u.| u.i.a.a.u.| X.&._.~.g.g.~.~.K.g.u.i.l.~.~.~.~.~.R.f.p.f.p.*.f.f.;.;.f.u.] F m z _ ] ] ' @.;.D.;.^ ^ [ } } } @.&.H.@.-.^ . . W ) ! Q S S x y y x p.p.u.X.",
"| u.&.*.f.f.f._.-._._.g.`.2X`.d.g.g.K.~.a.&.&.f.'._._.g.| ] e.K.K.e.u.~.`.~.~..X'.B.f.f.E.E.T.E.M.*...' ] | ] F ] ` n n Q } ( W y y p b P b P Q b c @.&.t t ( b } ' ' Q x y x ' &.u.X.] ",
"%.p.' } ! } Q &.! _.].&.| u.a.g.#X^.~.~.R.R..XuX1X1X.X`.(.~.*X5XaX<X*X<X<X_.~.`.'.'.E._.9X9XXXyX9XQ.*.X.u.a.a.i.~.g.u.&.f.G.=.( ^ W Q } @.@.@.@.b p P } ^ ( ( > ! ! ! ' ' ' Q x } ] ] ] ",
"R._.-.;.%.f.} ;.f._._.f.u.u.g.*XK.d.s.g.R.R..XtXXXR.f.H.`.*X:X:X2X2X2X<X,X1X1X,X}..X_. XyXyX XXXsXyX XE.'.'.~.V.~./.`.`..XoX[.T.-.@.+.&.f.s.@.| [ P c y b ^ L 7 ! } } | &.u.' y n _ ' ] ",
"%.f.! %.%.E.*.T.T.%.} -.H.u.&.(.(.H.(.}.}.R.H.R.R.g.g.a.u.| u.K.).2XeX).K.`.`.g.wXwX_.(..XT.! ( E.N.*.&.u.0.| ] ] u.R.~.Q.Q.D.=.D.%.+.&.;.&.[ P 4 b x t p u u s ( f.N.*.&.&.' x 4 l _ ] ",
";.%.E.XXyXyX XA u o.-.+.-.W.W.s.s.&.f.~.(.~.(.:X~.^.l.l.).@X@X=XL.4XiX6X6X6X$X$X+X#X#X`.`.`.~.f. XR.'._.`.:X#Xl.~.u.`.a..X{.[.W.Y.[.OXD./ ( %.S t u W ( ! ~ W ~ ) :.) ....Q &.D ] m l m ",
"T.;.XXvXvXvX8Xs ( o.( L ^ s.(.{.(..X`.R._.2X:XK.^.l.i.^.6X6X@Xk.+X+X+X$X%X+X%X;X%X$X$X#X`.'.u.' ' ' %.B.(.:X2X:X~.~.eX`.,X.XXXyXdXrXdXrXY.M.M.) S W ..%.+.~ W ~ )  .A A s u x y u.] F B ",
"R.*._.sXsXsX X( ;.*.-.%.%.-.G.H.{.R.R._._.R.g.~.`.^.h.^.6X4Xh.V V Z G z.k.h.z.z.h.h.l.~.~.u.' P y 3 x _ ] g.^.~.^.^.uX.X.XoXwXdXrXoXdXdX[.!.T.) u S } -.@.[ [ %.:. . .W S ' Q ' ~.V.a.5.",
"R.f.R.'.N.( ~ W J W o.D.G.G.G.!.E.%.f._.R.| f.2X<X2X>X@X$X@Xz.k.l.3.C.0X4X6XjX4XjXiXiX5X~.n < % > % - 1 1 l ] { | _ u.@.-.G.;.G.D.=.[.yXG.%.%.b 7 y D ' Q P [ @.( S ..b b &.' u.| u.0.F ",
"@.u.R.`._.f.;.E.;.%.=.;.;.-.G. X*.T.E.T.T..XtXuX~.*X).l.l.z.z.+X4XC.$X>X^.>XiX=X#X>X2X:Xa.Q y y 0 > p P n _ u.g.).~.*X.XoXyXqXwX[.!.qXyXW.%.&.' } ] &.| ] [ @.s.' S %.Q _ u.] u.B ] ` N ",
"U ] ] &.R.R.;.T.E.T.;.;.%.o.-.Q.*.%.%.%.E..X1X:X:X<X#XL.$X=X%X+X^.V.+X+Xl.+X>Xl.iXpXuX}.u.P y 0 8 8 L +.[ [ u.g.5.u.K.(.f.{.!.oX{.{.oX1XQ.;.-.f.u.&.u.u.| | u.g.a.f.g.u.u.i.5.5.` ` ` ` ",
"z _ z 4 x x 3 t s ~ ( %.$.%.*.T.M.%.%.T.E.T.g.~.u.l.i.4.i.h.7.V M F 5.a.i.i.u.u.g.g.u.P x n x > ; $ ; w 1 < v { e.e.e.u.^ f.%.Q.-.G.%.( %.} ! *.' Q Q _ ' _ ] | e.d.| | { ` 4.V Y C N G ",
"+ ` r.e.g.R.g._._. X X!.;.:.;.T.;.yXdX XT.'.`.R.g.*X#XL.+X@X+X+X#X/./.&X:X^.`.uXkXkX1Xa.s.R.u.b O.K i p 1 q e.-XiX>XK.(.H.wXW.{.[.oX*.( T.T.*.E.E.N.f.g.g.u.u.u.{ i.Y 4.` V r.` 4.V V 4.",
"2 6.L.i.u.~.`.R.f.E.T.%.*.Q.Q.%.Q. XyXyXtX.XR.g.g.`.#Xz.i.h.I.#Xa.u./.g.`.kX2X:XaX_.1X}.H.g.,X!.+.8 L 0 w T T <X5Xl.K.:X}.{.1X1X XQ.Q.!.;.Q.8XOX X XN.%.p.X.| ~.u.` 4.k.l.4.4.k.6.6.5.i.",
"3.h.z.k.d.g.g.-.%._. X*.~ ( %.%.( E. Xf.-.R.R.u.~.l.l.l.z.z.r.` l.V.g.l.~.`.2XtX:X(.}.u.~.u.(.s.=.i ~ w w v z z.L.k.^.>X*X~.'.Q.XXQ.!.T.:.;.E.OX XT.) ..B.u.u.<Xl.r.5.5.6.7.3.Y 3.5.i.j.",
"V M M N _ _ x 4 &.E.T.S O . . . y } %.y 1 l n l n z z 4.z.z.r.3.z l O n ' _ .X2X1X}.~.q H.| @.c ; . 9 % O 2 + V y.I.@X#X#X~.u.p.&.&.*.;.;.) R $.E.N...X.p.0.i.#X` ` N h M Y C h Y 7.i.a.",
"h.r.r.h.^.`.R.&.' } &.;.R.XX1X,X`.`.`._.H.s.g.~.g.l.^.+XL.h.l.+XeX#X5.g.~.g.:X1XkXaXpX[ H.{ K.+.o.~ -.+.{ k.y.%XI.6X4X#X>X#XB.R.~.1XtXtXyX XT. XT.tXuX_.p.a.z.z.i.d.i.t.r.k.k.r.i.h.l.l.",
"3.h.k.l.~.#X~.| R.f.-.R..X1X}.g.(.~.K.K.K.K.^.#X).>X5X4X^.h.z.=X#X^.:X).`.uXpXkXpXwXkXs.v g -XK.-.=.G.-.| i.x.I.9.%Xv.h.+X/.g.g.V.2X:X~.(._.E._.%..XuX~.` 3.6.3.i.u.i.d.i.5.6.h.6.5.3.3.",
"3.l.^.l.l.~.u.n Q Q ' p.R.R.f.@.d.K.d.U Y K.@Xl.5.l.^.^.l.h.i.i.l.*XkX#Xu._.H.:X1X~.}.@.& 2 t.v 8 i y 1 & f k >.>.9.9.8.z.^.j.0.i.>X*Xg.s.H.s.@.@._ ` 3.C C >.C z v U { ` B B 7.V C M C ",
"6.h.l.l.a.u.] n x x Q &.&.' _ _ e.k.r.U U k.L.k.^.$X$X^.z.l.5.z L.iXxXjX2XuXaXkX,X}.`.).{ { T q t ~ W c N 3.b.b.c.c.v.%X%X%X#XC.3.h.L.l.t.| [ q @.l N 6.7.7.9.7.| u.d.d.i.l.l.L.6.6.i.h.",
"#X^.+X>X&X~.a.g.R.f.R.`.}.R.g.g.d.k.L.@X@X@X=X5Xk.#X$XL.L.#XL.4.L.5X*X>X#X~.:XR.@.wXpXaXP.t.j t.1 L b l M 3.b.x.v.x.v.%Xh.i.V.j.k.6.i.d.' [ [ c w g { 7.C 7.9.>.5.g.a.] { i.d.{ e.d.L.^.",
"+X&Xi.~.~..Xf.W.W.!.-._.f.R.-.f.K.^.L.z.@X6X6X6X+X+X+Xk.v.+Xv.h.l.3X>X5X-X<X|.2X(.#.(.*X).t.k P.4 % 2 2 r.%X8.x.z.k.5.^.` 5.k.r.5.r.| ! / a = = e 0 _ v 4.7.w.>.B x n ] | ' ' e.s.e.^.5.",
"q.F m ` ' u.&.^ @.L c ^ } p.} u.^.^.l.i.i.l.h.7.` N h f f f f h z 4.B f h r.#.I #.[ {.,X-XP.Y 2.2 < g h 2.r.C 2.f 2 + U { 5.r.V k.e.p > r r = = = : c 4 3.6.I.z.q.a.~.~.u.} @.s.[ [ e.v ",
"lX^.^.~.~.:XpX{.(.&.(.'..X'.' ] ).).).).*X2X*XL.4.h * 2 f 2 g B i.5.4.3.k.t.#.@.[ I [ #.[ T h N v q v N Y 7.M z 5.U < 2 { 4.l.k.4.N 1 , e r = = r W L & B 3.y.k.M ] i.g.`.1X{.-..XoXpX2X",
"kX3X&Xg.}.,XaXtX}.@.(.' u.u.u.}.}.|.(.K.K.K.t.I P 2 O & q v P v 5.5.l.k.-X{ U U +.p ; 0 q g h T e.n f 2 h M f 2 O - < < 5.N 6.y.T v w 0 R E r r $.D.^ O B Y 3.7.5.a.a.i.~.1X_.[ !._..X.X",
"'.`.g.n _.~.(.:X(.~.wXa.0.F X.~.).(.H.t.t.@.I * % 1 - % % 8 0 - f 5.^.Y k.d.T % % ; $ % 1 l N j _ _ l g 2 +   o   O O . g + h k f f & O : e r E / o.c O ` 4.5.6.C.3X>Xg.u.R..X.X.XXX_.E.",
"Q '.] 4 s.' 4 _ U ).uX&Xi.z Z # & & % O % & %     w p O o X . . 2 z z h 4.{ c % . i 9 . % P { + (.}.n O X o 1 -.E.%.t 1 v h 2.Y + & & % = = = 9 i t 1 O U n n n 4.a.^.`.).`.1XwX1X1XE.*.",
".XaX.XH.`.).{ 5.e.5X#X^.q.j.>Xl.).P.P.t.t.d.s.#.J.(.W.+.J L +.-.u.V M k.K.{ I H.J $.a ; 3 P @.q 1 R.| [ @.3 - b W W L H.~.P.y.Y 2 I P L u : = : > O 1 4 _ q 4 4 ] ] i.:X2X~.f.u.:X1Xg.f.",
"1XwXR.g.u.`.g.i.4.5X3.6.G l.5Xq.t.t.T j j U U v }.s.P p L ' &.u.g N N r.z 2 w G.8 9 . t s 1 c l % &.1 - [ ;   , : t s W.@.4.2.k N U b 3 , . . = O   q ' a._ } } | ' u.`.`.| u.*X<X2Xl.l.",
"1XwX}.g.g.).).i.3.z.7.3.3.6.+Xq.h.N f f f f h ` g.n < x 4 Q Q | z z h h + & O G.8 , = : i p 1 l q L c q 1 p ( e . = > f.1 + f * * 2 &   o   . . O 1 4 ' u.P Q } R.y ' pX'.u.~.iX#X@Xz.h.",
":X`.(.:XiXjX4Xz.+X$Xk.z.+XC.+X3.C 2.h.$X@X7.V G #X] g x 4 m u.`.#X^.l.i.v U c oXXXY.a i W P q 1 s.1Xs.O   s.1XL d R W G.3 & * + q q p i ; . O - n { { K.(.f.Q..XyXN.} u.n l.#X+X4X;X6X;X",
"s.u.d.^.^.k.h.z.7.8.7.j.z.h.a.` +Xx.z.%X$X+X#X3X#XC.#X/.^.a.#X3X>X#X>X>Xl.{ I -.=.D.J s W P d.d.&.b c J.H.[ ^ L s ~ W %.y c l O - ; t J t , - y ] e.i.^._.R.XXyXyXyXXX_._ ~.^.5.7.8.y.x.",
"g.~.).@Xz.8.8.x.8.x.x.z.6.M N ] l.3.C 7.^.+X^.C.^.C.#X] F B a.0.l.i.).*X).T q p 0 D.~ ~ L q d.d.b 0 y J.H.U U c 1 p s s p +.[ % % , 8 i t t b | ] t.r.^.~.R.oX X XoX1XaX~.~.i.5.6.8.y.x.",
"5.i.h.z.%X%Xw.>.>.>.<.3.M f l e.d.` N 4.l.~.g.i.z | ~.U ] u.`.u.| B ] { l.g q w 0 =.i i p < U g b ~ ^ @.{ T #.j I +.G.~ ~ ;.o.; , 9 e 9 8 b | u.i.k.z.=X*X.XwX!.Q.f.@.`.~.#XV.C.` C z N ",
"l.^.+X%X%X7X%Xw.x.>.7.y.l.~.~.wX(.g.@.' _ ] g.`.d.*XuX`.g.a.s.l g.a.l.l.kXd.J.-.^ W.=.-.s.t.-X<XW.=.H.kXlXP.U.=XwXaXvXoXOXoX[.$.O.F.F.$.=.Q..X#Xl.z.I.4X<X1XyX;.W.{.H.R.u.&X&X3X5X`.'./.",
"5.q.h.8.>.>.9.b.b.7.h.h.d.u.U @.L ^ [ ^ L p L [ L L P ^ p +.(.2Xn ` | { xXe.U c ^ +.+.[ [ T r.@X^ ~ ^ H.P.P.-XP.t.|.yX~ a K r r K K r r R } u.d.k.x.I.=X#X1XdX!.s.2X,X.Xa./.#X0X`.g.*.*.",
"3.V 3.h.x.9.9.v.8.7.+XK.u.' 0 L p p p p p p b P @.^ Q G.L W -.1X] i.` N vXe.' ^ -.~ L ^ J.K.t.d.L L I u.P.k.P.T t.|.pXL 9 : e a K : = 9 s ' a.#Xz.z.+X>X@X2XkX:Xe.K.u.~.~.}.`.9X].B.f.N.",
"D ] G C 3.8.2.C N * :Xs.^ ^ 0 3 5 H m ] 0.#XZ a.g.X..XsX%.W Y.vX>XV C >XlX5Xg.g.H.} -.[ c +.J.J.~ t L [ v N r.d.k.pXkXR.s oXY.:.T.D.@.w _ 4 *X<X$XlX6X4X5X3X3X^.I.;X=XiXpX1XtX1X1XW.&.@.",
"X.B.V.i.%XfX@Xy.).*XpXXXoX!.D._.3XlXzXjX6XjX+XjXjX5X0XuXN.oXyXvXiX4X$X6XiX<Xg.| x } 1X{.[ -.W.qXD.~ ^ +.P [ d.K.5.g.{ Q y %.XX X} ^ [ H.H.g 5.).z i.).i.q.j.3.V 9.x.k.*X:XR. XE.+.+.+.@.",
"D ' u.B k.6Xr.h 2 @.p s W 8 i f.$X%XA.v.%XfX6XjX6Xz.r.Y f { @.g.+X+X@X^.l.e.' b c P J.[ w L I L i 8 L +.[ P U U l v < Q Q 0 T.> 0 L P J.g.u.u.5.2Xl.C.` j.3Xz.k.y.x.k.:X9XoX8X X( } } ^ ",
"Q D 5.N r.=XY j & P ; t t 8 0 H.jX%Xv.v.v.;XfX;X6X+XL.r.g q v ).l.i.i.K.~.u.| } @.[ +.b L [ c 8 i K o.G.W.J.u.@._ n q n Q W yXb -.J.J.G.}.2X,Xg.g.u.<X&X#Xj.V.0X6X=X^._. XT.M.:.} ^ W ^ ",
"R.u.a.i.@X;Xr.d.@.+.+.=.~ o.L G.] H V.3X#X:XjXjX>X`.*X@.p - p {.).d.e.~.2X2X(.-.p } W.G.J.H.s.H.[.[.!.!.{.,XpXkXuX`.pXaXpXtXaX-.oXG.oXW.wXG.(.'.~.a.^.uXkX~.iXvXjX#Xa.p.*...) ) *.;.E..X",
"uX.Xd.l.@XP.r.t.|.W.W.!.D.[.=.G.f.f.].vXuX_.R.-.(.(.W.p s J ~ G.s.s.@.@.}.pXoX[ b } J.-.@.@.s.wXJ K 9 $ ; p #.(.bX(.(.' q p p ^ L ~ qX-.!.^ +.+.}.' O _ kX~.<X5XiX~.u.&.*.M...M.*.Q.pXkX",
"vXxX~.^.-Xr.r.I #.H.~ i D.o.L i 7 7 u dXXX*.s u W s J , ~ J i J +.#.U [ J.oXW.^ f.+.^ c P P | tXJ O.J 0 i p L u.pX@.e.[ g P 1 L 8 o.oX^ +.-.%.L p b b P kXH.u.).jX^.a.X.....S %.} f..XuX",
"bXbX^.^.=Xk.P.j +.tXp , [.L J ; - u u pXN.y , b b ; i ~ {.o.t ^ #.I g I P c w y L c c p P c _ pXo.Y.F.~ ^ b c @.~.s.{ U l H.U [ -.~ ( L ~ %.i t y y p O pXuX~.2X=X5.u.0.B.E.N..X.X~.g.l.",
"uXeXi.6XP.U.4.Y @.,XJ ~ o.^ L p g V ` ).d.d.T e.d.U t.d.xX|.#.|.#.H.eX.XI ,XG.y ^ G.s._.,X2Xg.aXD.8 -.~ s.f.' ] K.u.*Xi.e.<XK.(.J.+.0 s W 0 t s t ; y L { H.K.^.+X%X=X&X' m &X0XjX4X$X4X",
"^.^.^.@XL.jXL.L.u.@.L +.~ p L ,X#Xx.6.k.=X4X=X@XP.P.U.j t.T T d.T P T s.H.-.s.-.@.b Q b < P ~.[ L % p 0 y u.n B B z 5.{ { 5.U d.P p ; ; 0 ; - 0 .   O p { T U 4.y.h.z.j.] 0.j.3.v.8.8.x.",
"#Xh.L.3.I.cX+X4.).p 0 i w c q <X$X8.3.Z 5.Y ` f h ).jXj f j 4.t.{ U g { eXc P [ @.P l 1 P _ *X[ +.L c q % i.n m ] ` 5.L.@Xd.k.jXU P [ [ } b % - 0 p 1 q { Y z V x.7.6.7.6.z.z.x.w.9.9.b.",
"M f C M 7XbXlX=X:X[ P q w @.P { 6.6.8.M G G a.i.`.uXaX4 & v d.i.h B h g ^.] @._ a.H.| ] c < 2XkX|.H.e.g + { z 5 V 3.M 5.z.Y 5.eXK.e.@.' ' c - x b H.P & j T Y C 7.C v.fX6XA.7.w.>.>.,.1.",
"%X$X%Xv.%X7X%X6.l.~.`.~.~.(.K.Y 7.j.q.G 5 H V.9XuX9XuX'.1XuX.Xi.>X$X4Xq.z.0X2X`.pX~.~.vXuX2XkX[ kXiXeXi.5.j.j.V +X$Xh.z.$Xr.5.+X` i.:XpXuXa.y y ' 2X~.e.k.k.I.I.8.8.%X6X4Xh.C <.c.c.n.n.",
"%X7Xv.7X7X%X%Xh.` u.`.tXkX2X).r.fXhX7X7Xq.Z.Z./.V.p.| x F 0.g.5X$Xv.6XA.z.#X5._ | :X~.~.l _ }.<X=X@X-X6.6.G 6.M $X$XC.C.$Xz.V Y r.z.4.] U 4 n _ l e.5.-X=XC C 2.v.6Xx.<.6.j.A.9.b.n.n.c.",
"A.x.<.b.v.jXv.8.5.] `.~.iX*Xr.U.n.n.S.gX7XA.w.8.6.4XhXk.7.7.7.fX7.1.A.A.lXA.q.q.n uX`.' H.g.K.vX@XI.+X$Xx.G <.G 6Xj.A.A.$X$XG <.3.6Xl.` B n l.B B ` ` eX6Xk k k 7.jXz.3.j.A.6X1.c.c.c.c.",
"v.w.w.b.9.zX8.h.l.V.kXe.e.5.N jXc.m.n.n.n.1.9.1.8.hXfX8.9.v.v.zXw.A.w.<.cX6.j.V.>XpXaX(.:Xd.}.bX@XU.I.hXx.V Z M hX<.w.h.h.j.Z C Z jXz.` V 5.0X` v z f I.v.k >.k x.lXj.G G G 6Xb.1.9.9.c."
};
