/* XPM */
static char *_35a96d639e44cfeb4adf4d7d2c534c4xU8Q7ASnzrLzGS3Q[] = {
/* columns rows colors chars-per-pixel */
"64 64 256 2 ",
"   c #2C3D37",
".  c #243123",
"X  c #7C3604",
"o  c #6E3400",
"O  c #28443C",
"+  c #354438",
"@  c #15423F",
"#  c #7C4C18",
"$  c #75450C",
"%  c #4F4D33",
"&  c #7D5928",
"*  c #6D5830",
"=  c #7B6234",
"-  c #575027",
";  c #1D4A46",
":  c #1E514A",
">  c #2B4A45",
",  c #254C4A",
"<  c #2B4C4B",
"1  c #244745",
"2  c #364B44",
"3  c #26514D",
"4  c #38564C",
"5  c #2D4D50",
"6  c #2C5353",
"7  c #2B5856",
"8  c #335454",
"9  c #355A56",
"0  c #3C5C54",
"q  c #375B59",
"w  c #314B51",
"e  c #3B635B",
"r  c #2D625F",
"t  c #376867",
"y  c #3B726B",
"u  c #336866",
"i  c #465649",
"p  c #465D56",
"a  c #55574E",
"s  c #4A6255",
"d  c #44645C",
"f  c #4B655B",
"g  c #4B6A5D",
"h  c #446354",
"j  c #536A5D",
"k  c #5A6D5D",
"l  c #556559",
"z  c #5D715E",
"x  c #51614B",
"c  c #756A47",
"v  c #636C5A",
"b  c #797657",
"n  c #6C6F52",
"m  c #4C6B63",
"M  c #476966",
"N  c #526D62",
"B  c #586C66",
"V  c #477369",
"C  c #557263",
"Z  c #5C7363",
"A  c #54726A",
"S  c #5C756A",
"D  c #5E796A",
"F  c #477875",
"G  c #597873",
"H  c #446D74",
"J  c #646B65",
"K  c #627564",
"L  c #63746A",
"P  c #627A6C",
"I  c #697969",
"U  c #667B73",
"Y  c #757971",
"T  c #665D58",
"R  c #873404",
"E  c #993A08",
"W  c #863D12",
"Q  c #A73B03",
"!  c #B53D04",
"~  c #894807",
"^  c #9C4B05",
"/  c #984A08",
"(  c #995209",
")  c #854717",
"_  c #8A551A",
"`  c #955815",
"'  c #954D0F",
"]  c #AB4501",
"[  c #A44B04",
"{  c #AB4A03",
"}  c #A34906",
"|  c #B44502",
" . c #BB4503",
".. c #B34900",
"X. c #BC4B01",
"o. c #B1450C",
"O. c #A45207",
"+. c #A65414",
"@. c #865A28",
"#. c #8E5929",
"$. c #89632A",
"%. c #966629",
"&. c #87673A",
"*. c #976A35",
"=. c #9B723A",
"-. c #A87435",
";. c #C24C02",
":. c #C55102",
">. c #CB5502",
",. c #CA5903",
"<. c #D25C01",
"1. c #D96500",
"2. c #D06C0D",
"3. c #E26D02",
"4. c #E87602",
"5. c #E97C14",
"6. c #D3732B",
"7. c #97764A",
"8. c #867956",
"9. c #997B54",
"0. c #8A7145",
"q. c #A47945",
"w. c #A57D54",
"e. c #887A77",
"r. c #4D827B",
"t. c #56847B",
"y. c #678578",
"u. c #768579",
"i. c #778D73",
"p. c #778659",
"a. c #F38403",
"s. c #F48B02",
"d. c #F88908",
"f. c #F69301",
"g. c #FA9B02",
"h. c #F99704",
"j. c #EE8C0C",
"k. c #FCA403",
"l. c #FCAB02",
"z. c #F5A900",
"x. c #FEB303",
"c. c #FBBA07",
"v. c #EBB615",
"b. c #CEB22E",
"n. c #E8B629",
"m. c #DA9524",
"M. c #FFC915",
"N. c #FEC610",
"B. c #FFD82B",
"V. c #FED939",
"C. c #EFC72E",
"Z. c #FFE33C",
"A. c #DEC33E",
"S. c #998558",
"D. c #8F8758",
"F. c #A6865A",
"G. c #B2894E",
"H. c #85897A",
"J. c #88997A",
"K. c #99967A",
"L. c #938E68",
"P. c #AC9469",
"I. c #B3956A",
"U. c #A89875",
"Y. c #B59B75",
"T. c #AA8C67",
"R. c #98A36B",
"E. c #B3A576",
"W. c #ADA64F",
"Q. c #C69354",
"!. c #C8A375",
"~. c #D7AA4F",
"^. c #E7CB4D",
"/. c #E9DC72",
"(. c #DCD165",
"). c #B7A55C",
"_. c #4D7B84",
"`. c #598887",
"'. c #5B948B",
"]. c #599796",
"[. c #668A85",
"{. c #798B84",
"}. c #659488",
"|. c #79938C",
" X c #6A9797",
".X c #789B97",
"XX c #688F95",
"oX c #76A496",
"OX c #7EA38A",
"+X c #6C9AAA",
"@X c #77A5A7",
"#X c #74A5B2",
"$X c #5C9DA3",
"%X c #858B84",
"&X c #87968A",
"*X c #889A95",
"=X c #95998E",
"-X c #AC9D8E",
";X c #85A398",
":X c #9AA49B",
">X c #91A688",
",X c #B9A988",
"<X c #A8A69A",
"1X c #BAAC95",
"2X c #BBB498",
"3X c #B4AE88",
"4X c #98ABA5",
"5X c #A9B4AA",
"6X c #B8B8A8",
"7X c #B6BAB4",
"8X c #ABB0AC",
"9X c #C6AB89",
"0X c #C6B697",
"qX c #CFB790",
"wX c #C9BAA5",
"eX c #C8B6AE",
"rX c #BAC3BA",
"tX c #BDC1A0",
"yX c #D2CA95",
"uX c #E7CC95",
"iX c #CCC5A9",
"pX c #D6C8A9",
"aX c #C8C7B8",
"sX c #D8CBB6",
"dX c #D9D3B9",
"fX c #D0D1B6",
"gX c #E4D4B3",
"hX c #EDE2BA",
"jX c #EFE98B",
"kX c #B8CFCA",
"lX c #CACAC5",
"zX c #D3CDC3",
"xX c #D8CCC7",
"cX c #CCD3C7",
"vX c #D4D2C3",
"bX c #DAD6C8",
"nX c #DADCD5",
"mX c #D3C8D0",
"MX c #E6DAC7",
"NX c #E3D9D4",
"BX c #F0DED0",
"VX c #DBE6DA",
"CX c #DAE2CB",
"ZX c #F7EBC9",
"AX c #FEF2CE",
"SX c #E8E6D7",
"DX c #F7ECD8",
"FX c #FDF5D6",
"GX c #EAE8CB",
"HX c #EAEAE4",
"JX c #FAF8E9",
"KX c #FDFDF4",
"LX c #FBFEFA",
"PX c #F6F9F4",
"IX c #EFF4EC",
"UX c #DBE6E2",
/* pixels */
"T T T e.<X7X:XU O O 1 ; ; ; ; ; , , 1 < < > , , , 6 p :XfXZX9X- 8.FXv + < , 7 6 7 9 0 0 0 0 e d p p l l l l j j k k k k k k k k ",
"a a a a J J p > O 1 1 ; ; ; ; ; , , < < > > < , 6 1 O K J.K.8.= * MXu.+ 8 < 8 6 6 8 0 0 0 0 e d s s s j l j j j k k k k k k k k ",
"  % % +   +     1 1 1 1 1 1 1 1 , , < < > < < , , 1 > u.bXiX8.- c dX6Xi 0 < 6 6 8 9 0 0 0 q d d s s f j j j j j k k k k k k z z ",
"  + 2 + O > > > 1 1 1 , 1 1 < < < < < < > > , , 6 , O p JXFX8.- b iXCX2 9 6 6 7 q q d 0 0 d d d f f f j j j j j Z Z k z k k z z ",
"O O > O O 1 1 1 1 , , < < < < < < < < < < < , , ; , O + CXdX* * * K.CX+ 4 8 6 7 7 0 d 0 0 d M d f f g g j N N N Z Z k z z z z z ",
"; 1 ; ; 1 ; ; ; , , < < w w w < 5 5 < < < > , , ; , 4 s VXdX- L.- b bX+ 4 8 6 6 6 q p 0 0 d M M f f g g N C C Z Z Z z z Z Z z K ",
"; ; : 3 3 3 3 7 , , , < < 5 w 5 5 5 < < < < , , 7 3 O O tXfXc gX- b CXi 4 8 6 6 q d d p p m m d g f g g C C Z Z Z Z Z Z K K K K ",
", : : : : : 3 7 3 3 3 3 5 6 6 5 5 < < < < < , , @ 7 <   J.iXc AX- b bXi > < 8 q M A A d d g m d g g g N C C C Z Z Z Z Z K K K K ",
", 3 3 3 3 7 7 7 ; r 7 3 6 , 6 3 8 > 4 9 < < 3 3 ; 7 1 4 + -Xc ZXL.* DXl i 1 6 M V G A f d m m g C g D C j S Z j Z Z Z Z K K K K ",
"< 6 6 6 6 6 6 6 3 7 ; ; , 1 8 8 8 < 4 4 < 4 9 6 6 , > O + -X8.pXc c fXi 2 8 q , 8 d d 0 h g m m g i s g f Z P U Z Z Z Z K K K K ",
"8 8 6 8 8 6 6 9 q q 1 9 q 9 0 0 M A G G G y.[.t. X`..X{.u.fX,XpXU.L.bX&X|.|..X X[.|.{.y.y.y.G G u.P P U P Z Z j K K K K K K K K ",
"8 8 8 8 8 9 9 9 8 9 d .X*X*X|.|.|.*X4X;X|.*X.X[.t.F G j v 2X1XZXL.c tXv S M F `.[..X|.|.;X;X;X4X5X5XrXkXrX5X*XZ K K K K K K K K ",
"6 7 8 8 8 7 q 9 4 p U kX7X:Xu.L B U |.|.|..X|.G q t w 4 a <XU.ZXD.b SX+ 2 8 8 8 < 0 0 p j S U {.&X7XlXVXIXLXVX{.I K K K Z Z K K ",
"7 7 7 7 7 q q 0 p f {.UX7X=XJ T p p N S U {.[.M e M 8 p a 1XU.gX8.8.JX% p 4 < 9 m A g s f g m S J :X8XlXHXLXIX&XI I K K Z Z K K ",
"7 7 7 7 r e q p p l %XPXxXeX<X8X7X*XU L U {.G q 1 1 0 2 . L.1X9X8.L.JXl j 0 4 M 0 d p p f f m S Y 8X7XcXIXLXPX=XI I K K Z K Z Z ",
"r r r r r e e d N l Y IXeX1XeXxXLX7XY U {.*X|.A < M kX5Xa L.,Xc b 1XDXi 2 p q , e m g g A A A y.u.7X7XnXIXPXPX:XI I K K Z Z K K ",
"r r r r u u t M d l 8XIX-XaX<XaXIX|.2 B *X4XkXM < 9 UXY i K.U.S.* 2XJXl 2 A q e 8 .XV d [.G g S Y 7X7XaXIXKXPX5XK P P P P P L L ",
"u u u u u u t M m B 7XPX<XxX-XbXHX&Xi f u.{.4XM ;X8 > i . b 2XgX8.L.JXH.2 f M G H [.e V e y.|.y.U 7X8XaXHXKXLXrXK K D S P P L L ",
"t t u u t y y V A S 7XPX<XxX=XNXnX{.p B %X*X5XU   > > 2 i b AXpX= c DX% Y B *XkX4 V 4 C 2 Z U u.U 5X8XrXSXPXLXcXP Z S S S P L L ",
"t t t t y y V V B U lXIX<XzXH.SXlX{.l J &X&X*Xp M G N I J.n dXD.0.,XZXn a J p p p y.N Z Z Z Z 4Xu.5X7XrXnXPXLXnXL Z Z S P L L L ",
"y y y y y y V V A {.cXHX8XaX%XHX:XY J Y =X=X&Xf > G j y.x n 0XE.Y.Y.FXb % i :X2 i s Z I =Xv l u.u.5X7XrXnXPXLXUXU S Z S P Z J L ",
"y y y y y V V A N =XnXbX7X6X=XSX7X7XlXbXHXHXIXUX{.D i i i.tXZX9X0.9XZXwXT Y J i {.i H.>X6X=X=Xu.{.4X7XrXnXLXLXIXu.P Z D P Z J K ",
"H H y y F F F A p :XnXzXaX<X<XbXlXlXSXbXnXbXVXVXIX4X&Xl I % U.qX= E.gXc K.%Xi %X5XY &Xu.H.:X7X8X&X4X7X7XnXLXLXPXu.P Z P P Z K K ",
"H H F F F F G G f 8XHXzXbX<X6XbXbXzXbXeXxXvXnXVXUXPXVXrXJ.K.yXgXS.9XAXL.1XnXa %X&X5XrX=X:X7X8X7X:X5X7X7XnXLXPXPX{.U S P P Z v K ",
"F F F F F F G G U 8XSXHXNXvXzXaXzXxXbXxXsXsXvXbXCXVXVXSXSXGXhXgX,XhXdXK.aXaX7XrXcXVXSX&X:X8XUXlX8X5X5XaXSXPXLXLX*XL y.C P Z I K ",
"F F F F F F t.U *XrXnXbXzXzXvXvXzXbXbXxXsXsXvXbXcXcXcXCXGXZXZXZXpXFXGX6XnXbXlXaX<XcXcX:X=X7XHXPXcXaXaXzXSXJXKXLX:XP U C P Z K K ",
"F F r.r.r.t.t.y.5XlXbXzXaXzXbXvXxXbXbXdXsXsXdXbXaXaXaXaXfXdXgXgXhXZXDXbXDXSXnXcXH.6X6X6X%X7XlXHXSXbXfXdXNXHXKXLX4XL U Z D Z K Z ",
"F r.r.r.r.t.y.u.5XlXbXxXzXbXbXvXvXbXMXdXpXiXsXbXaXaX6X6X2X0X0XqXpXpXdXMXSXSXSXNXfXSXSXJXvXSXbXSXdXpXiXiXMXDXJXLX7XL U S D Z P Z ",
"r.r.r.t.t.t.y.{.5XlXnXbXvXbXbXvXvXbXMXdXiXiXsXbXiXwX6X6X2X0X9X9X,X3X0XdXsXvXMXMXGXGXGXZXMXdXwX2X0X9X0X0XsXBXJXKXrXL P D D C P Z ",
"t.r.t.`.t.t.y.|.7XxXNXbXsXvXvXvXcXbXbXdXiXwXpXMXiXeX6X2X1X,X,XE.E.E.,X0X1X0XwXiXpXpXgXiXiX,X,X,XY.Y.E.qXpXBXDXKXcXL S D S C P j ",
"`.t.t.`.t.t.[.&XrXbXNXxXsXzXvXfXaXvXbXsXwXwXpXgXwXwX6X1X,X,XY.I.P.Y.P.Y.T.-XU.U.U.U.E.P.P.T.U.U.F.T.Y.9XwXMXDXKXnXL S U S C U j ",
"`.`.`.'.`.t.u.*X7XxXNXxXxXbXdXfXaXdXdXsXwXwXpXgXwX2X1X1X,X,XY.Y.F.P.9.F.9.T.9.9.F.S.S.S.F.F.F.9.S.F.I.9XwXMXDXKXVXL S U S C y.j ",
"[.[.`.'.}.[.u.=XeXNXNXmXmXbXdXsXfXdXdXiXiX2XdXfXwX0X1X,XE.Y.P.P.T.F.w.9.7.7.7.7.=.=.=.7.7.q.q.q.q.F.T.E.wXgXSXKXIXL S U j D C C ",
"[.}.`.'.'.y.u.-XwXMXNXmXlXvXpXpXpXdXdXiXiX2XdXsX0X0X,XE.Y.I.P.T.F.w.9.7.7.7.*.*.*.*.*.*.=.=.=.=.=.G.F.Y.wXdXSXKXIXP S U N D C C ",
"y.}.'.'.'.y.i.K.0XdXnXlXaXfXpXyXiXsXdXwXiX1XsXpX0X9X,XY.Y.I.F.F.w.9.7.0.0.&.&.$.$.$.$.$.%.%.%.*.=.q.F.Y.0XdXSXKXIXu.S U N S C C ",
"y.}.'.'.'.y.i.K.2XdXbXaXaXfXyXyXiXsXdXwXwX1XsXpX0X9X,XY.I.T.F.F.9.9.0.0.&.&.&.& @.@.@.$.$.$.$.%.=.q.F.Y.qXsXSXKXIX{.S U B S A C ",
"[.}.].]. X}.i.>X2XdXbXaXaXaXiXyXwXdXsXwXwX0XsXiX1X,X,XY.P.T.F.F.9.7.0.0.&.&.= & & @.@.$.$.$.$.%.*.q.F.I.qXsXGXKXIX*XS G A A A A ",
"}. X$X$X$X}.i.>X2XsXxXaXaXaXiX0X0XsXsX0XwX1XsXwX1X,XU.U.T.F.9.9.7.0.0.&.= = & & & & @.@.@.$.$.%.*.q.w.I.9XpXBXKXPX*XB S A B A A ",
" X+X$X+X+XXX{.-X1XsXdXeXeXeXwX0X0XpXpX2X2X3XpX0X3XU.U.L.S.S.7.0.0.&.&.&.= & & & & & # _ _ @.@.#.%.=.q.T.9XpXBXKXPX4XB A G N A A ",
"+X+X+X+X+XXX%X-X9XpXsXwXwXwXqX9X9XyXyX3X3X3XyX0XE.U.T.S.S.7.0.&.&.&.@.@.@.& # # # # # # ) _ _ _ #.*.q.F.9XpXBXKXPX4XB A G N A A ",
".X@X+X+X#X.XH.S.I.uXqX!.!.!.!.!.!.qXqXY.I.P.yX9XP.F.F.7.7.=.*.$.#.#.#.) ) ) ) ) ) ) W W W ~ ~ ~ ~ _ %.w.!.qXgXKXKX=XL B N A m A ",
".X.X+X+X.X{.D.F.-.~.Q.-.G.-.-.-.-.G.Q.-.=.=.!.Q.*.*.#.#.#._ ) ) W W W W X X X X X X X X X R R R ~ ~ ~ #.7.T.wXDXIX&XL B A A m A ",
"&X.X.X.XOXJ.S.W.m.C.n.m.m.m.m.2.2.6.6.+.+.+.Q.6.+.' ' E E E E E R R R R R R R R E E E / / ' ' ' ~ ~ ~ # @.7.,XDXSX%XB B A A m N ",
"|.OXoXoX>XR.W.~.n.V.C.v.n.j.j.j.5.5.5.,.2.2.m.6.o.o.o.! ! ! ! Q Q E E E E E E E E E E / / / +.+.^ ( ' _ $.9.9XDXSXH.k B B B g m ",
"OXOXoXoX;XR.W.^.v.B.M.z.z.z.f.s.d.j.5.1.5.2.m.6.:.;.;. . .! ! ! Q Q Q Q Q Q Q Q Q ^ ^ ^ ^ ^ } O.O.( / ` *.F.qXAXSXH.k B N N g N ",
"OXoXoXoXOXJ.W.^.C.B.N.c.c.z.k.g.a.d.a.3.5.3.j.5.,.>.;.;.;.;.! ! ! ! Q Q Q Q Q Q { { [ } } O.O.O.O.^ ~ ~ %.F.qXFXSXH.l j g j g N ",
"@X@X#X#XoXJ.W.^.n.B.N.c.c.z.g.g.s.s.s.4.a.4.j.5.<.,.,.:.;.X. . .! ! ! ! ! ! ] ] ] } } ^ ^ ^ [ [ O.[ ~ ' *.G.qXFXGXH.l j j j f g ",
"@X@X#X#X@XJ.W.(.n.B.N.c.c.z.h.h.f.f.s.a.a.4.j.j.1.<.,.>.:.X.X. .! ! ! ! ! ] ] ] ] ] [ [ [ O.O.O.[ ^ ( ` -.G.qXAXMXu.l j g j f j ",
"@X#X#X@X;XJ.R./.n.Z.M.x.x.k.k.h.f.f.s.s.a.d.d.d.1.1.1.,.>.:.;.X. . . .| | | ] ] ] [ [ [ [ O.O.( ^ +.( ' %.G.qXAXbXI j D f f N j ",
"@X@X@X.X;XJ.R./.b.Z.M.x.x.k.k.g.h.f.d.s.a.d.d.d.3.1.1.,.>.:.;.X. . . .| | | ] ] { { [ [ [ O.O.( ^ ` ( ` %.G.qXAXdXI f A d m N j ",
"@X@X@X.X;XJ.R./.A.V.M.c.x.l.k.g.g.h.f.d.s.d.d.d.4.3.1.<.,.>.:.;. . . . .| | ] ] { { [ [ O.O.O.( ( ( ( ` %.G.qXAXaXK s m d f f s ",
"@X@X@X.X;XJ.R.jX^.V.B.N.x.l.k.g.h.h.h.f.d.d.d.d.4.3.1.<.<.>.:.:. . . . .| | | { { { { [ [ O.O.( ( / ( ` %.G.uXFX6XK s g d g s s ",
"@X@X@X.X;XJ.R.jX^.V.B.N.x.l.k.k.g.h.h.f.d.d.d.d.4.3.1.<.<.,.>.:.X. . . .| | | { { { [ [ [ [ ^ ( ( ~ ( ` ` G.uXAX<Xz s d d g h h ",
"@X.X@X.X.Xi.L.uX^.C.B.N.x.x.l.k.g.h.h.f.d.s.a.a.4.3.1.1.<.>.>.:.X. . . .| | | { { { [ [ [ ^ ^ ^ ( ~ ( ` ` G.uXhXK.k s d d g p s ",
"@X X X X.Xi.D.(.(.C.V.M.z.x.l.k.g.g.h.f.s.a.a.a.4.3.1.1.<.>.>.:. .X. .| | | ] { { [ [ [ ^ ^ ^ ^ ( ~ ( ` ` Q.uXpXp.x s h h f 4 h ",
"oX X X X Xy.p.(./.A.V.M.z.x.l.k.g.g.g.f.s.s.a.a.4.3.1.1.<.>.>.:.X.X. .| | | ] { [ [ [ ^ ^ ^ ^ / / ~ ` ` _ Q.uX9Xn x s h h h 4 h ",
" X.X XXX Xy.p.3X/.b.Z.M.c.c.l.l.k.k.h.f.f.s.s.a.4.4.1.1.<.>.>.:.;.X.X.| ....{ ] [ [ [ ^ ^ ^ / / ~ ~ ~ ~ %.!.qXU.n l h h h h h 4 ",
" X X X`.XXy.I E.jXb.Z.M.N.c.x.l.k.k.g.g.f.f.s.a.4.4.1.1.<.>.>.:.;.X.........{ ] ] [ [ ^ ^ ^ / / / ~ ( ` %.G.P.D.n l h 0 e h 0 4 ",
"}.}.XX`.[.G z R.jXb.V.B.N.c.x.x.l.k.k.g.f.f.s.a.4.4.1.1.<.>.>.:.X.X.........{ ] } [ ^ ^ ^ / / / ( ( ( ` %.$.&.8.v s p 0 0 0 0 4 ",
"}.`.'.`.`.G z L.jXb.C.Z.N.c.c.x.l.l.k.g.h.f.s.s.4.4.3.1.<.>.>.:.X.X.........{ ] } ^ ^ ^ / / / / / ~ ~ ~ _ # * D.x p 0 0 0 0 0 4 ",
"}.t.`.`._.G j p.jXb.C.Z.M.c.c.c.x.l.k.k.g.h.f.a.a.4.3.1.<.>.>.:.X.X.........{ [ } ^ ^ ^ / / / / ( ~ $ $ # $ * L.x p 0 0 9 9 0 4 ",
"y.F `._._.F s n uXb.b.Z.B.N.c.c.x.l.l.k.k.g.f.d.a.4.4.1.<.>.>.:.X.X.........{ [ [ [ [ ^ ( / / / ` ~ ~ X $ $ = L.a i 0 0 9 8 8 4 ",
"t.V F _.H H h x (.A.b.V.B.M.x.c.x.x.l.l.k.g.f.s.s.4.4.1.<.>.>.:.X.X.......{ { [ { } O.^ ( ' ' ' ' ~ ~ X o # 0.8.i i 0 8 8 8 5 5 ",
"t.V F F H H p % 3X(.b.B.B.M.x.c.x.x.l.l.k.k.h.d.d.4.4.1.<.>.>.:.X.X.......{ { [ { } O.( ( ' ' ' ' ~ ~ $ o & 0.c i i q 8 6 < < < "
};
