/* XPM */
static char *_a275b19eda34ede9ec5551ac33f0d2bNI0NlYvs0Yja7p8E[] = {
/* columns rows colors chars-per-pixel */
"64 64 220 2 ",
"   c #3D3737",
".  c #342A2C",
"X  c #433C3C",
"o  c #483838",
"O  c #4C3739",
"+  c #4A433D",
"@  c #53463E",
"#  c #3A3F45",
"$  c #503D41",
"%  c #3E4747",
"&  c #4C4342",
"*  c #4B4A46",
"=  c #444C4A",
"-  c #4B4D4C",
";  c #464647",
":  c #534443",
">  c #594645",
",  c #544A45",
"<  c #584C46",
"1  c #534D4C",
"2  c #5B4D4B",
"3  c #56464A",
"4  c #4D524D",
"5  c #45514D",
"6  c #54524D",
"7  c #5B514E",
"8  c #575046",
"9  c #4D4D52",
"0  c #464E50",
"q  c #574D52",
"w  c #455353",
"e  c #4B5353",
"r  c #4E5955",
"t  c #4E585A",
"y  c #545353",
"u  c #5C5452",
"i  c #535A56",
"p  c #5D5956",
"a  c #55555A",
"s  c #5C565A",
"d  c #555B5B",
"f  c #5B5C5B",
"g  c #614D4D",
"h  c #61524E",
"j  c #645454",
"k  c #635A55",
"l  c #645C5B",
"z  c #6A5D5C",
"x  c #685857",
"c  c #715A59",
"v  c #624E52",
"b  c #55615D",
"n  c #5C625D",
"m  c #4F605A",
"M  c #62615E",
"N  c #6B625E",
"B  c #696057",
"V  c #74645F",
"C  c #555C61",
"Z  c #5C5D62",
"A  c #635D63",
"S  c #695F61",
"D  c #715E64",
"F  c #546262",
"G  c #5C6364",
"H  c #5D6469",
"J  c #5E6A68",
"K  c #4C6061",
"L  c #646463",
"P  c #6C6463",
"I  c #636964",
"U  c #6C6A66",
"Y  c #65656A",
"T  c #6C6569",
"R  c #646B6B",
"E  c #6B6C6C",
"W  c #736464",
"Q  c #7C6564",
"!  c #746B63",
"~  c #7A6B65",
"^  c #736C6B",
"/  c #7C6C6B",
"(  c #72676A",
")  c #6C726D",
"_  c #66706A",
"`  c #73726D",
"'  c #7A716C",
"]  c #676D71",
"[  c #766E72",
"{  c #6D7374",
"}  c #6B7776",
"|  c #737474",
" . c #7C7473",
".. c #757C76",
"X. c #7B7A75",
"o. c #737B7B",
"O. c #7B7D7B",
"+. c #76767A",
"@. c #826D6B",
"#. c #8C6F6F",
"$. c #856769",
"%. c #81766E",
"&. c #896F71",
"*. c #847573",
"=. c #8A7574",
"-. c #837974",
";. c #8B7B76",
":. c #847C7B",
">. c #8C7B7A",
",. c #827779",
"<. c #937E7C",
"1. c #967A7A",
"2. c #7B827D",
"3. c #75817B",
"4. c #83817D",
"5. c #8A847D",
"6. c #86887E",
"7. c #92827D",
"8. c #787D81",
"9. c #867E82",
"0. c #7D8381",
"q. c #7B8888",
"w. c #768989",
"e. c #848382",
"r. c #8B8482",
"t. c #8C8985",
"y. c #858688",
"u. c #848C89",
"i. c #8B8B8B",
"p. c #8A8789",
"a. c #948584",
"s. c #998685",
"d. c #938A83",
"f. c #948C8A",
"g. c #9C8C8A",
"h. c #988787",
"j. c #85938B",
"k. c #93918D",
"l. c #9C928B",
"z. c #96948B",
"x. c #888D92",
"c. c #998E90",
"v. c #8C9596",
"b. c #949393",
"n. c #9B9493",
"m. c #949894",
"M. c #9C9A95",
"N. c #999699",
"B. c #959C9B",
"V. c #9B9C9C",
"C. c #949599",
"Z. c #A28E8C",
"A. c #A18789",
"S. c #A1958E",
"D. c #A39593",
"F. c #A49A95",
"G. c #AA9A96",
"H. c #A49D9C",
"J. c #AB9C9B",
"K. c #A99599",
"L. c #B59A9A",
"P. c #9AA19C",
"I. c #A4A29E",
"U. c #ACA29D",
"Y. c #ACA89E",
"T. c #B2A29E",
"R. c #9D9FA1",
"E. c #A29EA2",
"W. c #AB9DA1",
"Q. c #BF9FA2",
"!. c #9DA3A2",
"~. c #9EA7A5",
"^. c #A4A4A3",
"/. c #ABA4A3",
"(. c #A4A8A5",
"). c #ACA9A5",
"_. c #ADAAAA",
"`. c #A5A9AB",
"'. c #B2A4A3",
"]. c #B2A9A6",
"[. c #B3ACAA",
"{. c #BCADAD",
"}. c #B7A6A7",
"|. c #A7B3AE",
" X c #ABB2AE",
".X c #B3B2AE",
"XX c #BDB3AF",
"oX c #ADADB1",
"OX c #A3AAB2",
"+X c #B2AEB3",
"@X c #ABB3B2",
"#X c #ACB7B9",
"$X c #B4B4B4",
"%X c #BCB5B3",
"&X c #BCB5B9",
"*X c #B5BCBB",
"=X c #BCBBBB",
"-X c #B5B8B6",
";X c #C5ACAD",
":X c #C4B2AE",
">X c #C2B3B3",
",X c #C3B8B6",
"<X c #C3BDBA",
"1X c #CBBCBC",
"2X c #CBB8B3",
"3X c #D1BBBD",
"4X c #BCC1BD",
"5X c #CAC1BD",
"6X c #D2C0BC",
"7X c #B7BDC2",
"8X c #C7BEC3",
"9X c #BBC3C3",
"0X c #C5C6CA",
"qX c #C7C4C6",
"wX c #D6CACB",
"eX c #D7D7D6",
"rX c #CFD1CF",
"tX c #E3DEDB",
"yX c #E1C4C8",
"uX c #ECE2E1",
/* pixels */
"W.K.K.K.{.J.' ,. .-.>.<.<.L.1.2XU.5.F.G.G.A.;XL.Q.;XyX3X;X1X>X'.W.K.K.K.{.J.&.=.*.=.>.<.7.J.7.2XU.5.S.G.G.A.;XL.Q.;XyX3X;X1X>X'.",
"z D S x [ :.l l k & : 2 > g O =.-.k ! ~ V c 1.#.$.#.A.=.W / W z l T T l [ :.x l j : : 2 > g o *.-.k ! ~ V c 1.#.$.#.A.=.W / W z ",
"l T T * p E 6   6 + +   . : o / 5.V ' ~ V V 1.#.$.=.Z.>.P W N l f P P * p ^ 1 X 2 X X   . & o ' 5.V ' ~ V V 1.#.$.=.Z.>.W W N l ",
"i.N.H.i.N. Xm.0.I | 4.6 &  .-.l.U.d.l.d.a.Z.Z.<.G.T.3X>XU.).H.N.i.N.V.i.N.[.N.e.P  .4.6 ;  .-.l.U.d.l.d.a.Z.Z.<.G.T.3X>XU.).H.M.",
"^.B.!.B.V.(.m.j.m. XrXm.O.M.H.Y.Y.l.F.F.T.2XJ.g.h.h.J.H.M._.).(.~.C.!.B.V.(.C.i.m..XrXm.O.M.P.I.Y.l.F.F.T.2XJ.g.h.h.J.H.M._.).(.",
"u.I G d e r 5 e i G P...y 4 * 6 8 + < < x 7.j > 7 : u 6 y ) ..2.u.J G d e r 5 e i L P...i 4 = 6 6 + < < x 7.j > 7 : u 6 y ) ..2.",
"o.e e w % r b G % = u.I 6 * * * 6 , 7 , h 7.u u 2 & 6 * ; n _ } o.e e w = i b G ; = i.I 4 * * * 6 , 7 , h 7.7 j 2 & 6 * ; n _ } ",
"v.} o.{ G { | ) { 2.-X4.` e.k.O.d.d.d.-.-.[.>.a.' ^ 4.X.) 3.2.u.v.} o.{ G { | { | 2.-X4.` e.k.O.d.d.d.-.-.[.>.a.' ^ 4.X.) 3.2.u.",
"7X*X#X7X7XeXoX^.-XN.-X$X[.5X<X<X5X].U./.%X5X,X%X<X<XeX*X*X|.@X|.=X*XoXqXoXeX$X^.+XV..X$X[.=XqX<X<X]./.'.%X5X&X%X<X<XeX*X*X|.|.|.",
"a Z Z L T f.( s L q T l u  .:. .:.N 7 , 7 z l p P U (.n I b r i f Z a T A V.| y f y A l u ^ :. .:.N 7 , 7 l l p P U (.n I b r r ",
"9 a a a s p.T q 3 & q 3 X (  .^ :.! k 6 7 M P p L M $X- y - = e 9 a 9 a a N.[ 1 ; 3 1 1 X S ,.( -.! k 6 7 l P p L M $X- y - = e ",
"Z Z a a s 9.T A s q s l & l P l l.t.X.^ M P U ; 1 L =Xi.e.L - - Z a a Z s i.[ s y s u l & u P l f.t.X.` M P U ; 1 I =Xi.e.L 9 - ",
"0X#X`.oX+X0X&X8X8X&X&XeX[./.^.^.).]././.H.[.=Xt.V._._.(.b.y.E.=X0XoX`.+XoX0X=X=X=X=X$XeX[.H./.H./.]./.).H._.=Xt.V._._.(.b.y.E.=X",
"x.R t Z a A 9 T A l l b.P y - y 1 y * p f 4.^.L   s y e.( y l T i.Y Z Z e d y A f A s N.P * y 6 1 6 1 p f O.^.L   s y e.( y l T ",
"v.o.G H a L 9 A 9 a a b.L f f f f M 1 y 6 X.I.y s L L  .T s A E C.{ R C t C a f = f y C.L y M f p M 1 y 6 X.I.y s L L  .T s A ( ",
"C.y.o.o.] p.+.8.E 9.+.`.| } } E ` X.U :.5..XtXt.e.:.n.:. .( T [ V.8.8.R { y.y.O.L e.[ _.| E  .( ^ X.^ 4.5..XtXt.e.:.n.:. .( T ^ ",
"n.n.V.V.=X=Xm.B.B.~.v.`.v.!.#XrX).d.F.F.D.g.>XJ.'.{.wX1X{.1X>X'.W.b.W.N.-XqXt.k.H.F.d.>X>X>X}.{.Y.d.F.F.F.g.>XJ.'.{.wX1X{.1X>X'.",
"! ^ N 6 U 4.E R r e % F w e L p.X.k ! V N x <.@./ *.g.-.W / W z T z P 1 ^ f.N P P P x >.~ Q $.s.%.k ! V z x >.@./ *.g.-.W / W z ",
"k P P y I 2.G e J r w G e = y  .5.! %.~ V W ;.~ / =.Z.>.P W z l z z P 1 P t.^ ^  .P k / @.=.=.Z.7.! %.! N V ;.@./ =.Z.>.P W z l ",
"e.t.M.k.N.!.0.) d b ) o.{ +.8.H.Y.l.S.d.a.S.Z.>.G.T.1X>XU.].H.M.i.f.n.t.b.).b.k.n.l.l.g.g.J.G.T.T.l.S.d.a.l.Z.7.G.T.1X>XU.].H.M.",
"-XR.^.V.R.!.v.v.`.=XeX-XM.b.i.M.Y.S.G.S.G.>XG.h.h.h.U.H.F._.).^._.V.^.^.I.I.m.M.M.<XtX[.d.S.D.T.U.S.J.D.G.:XG.h.h.h.U.H.F._.).^.",
"8.d d i w e w a   n k.M - 6 1 u < @ 2 < j <.j , 2 : u 6 y ` X.2.+.f y f 4 = 4 y * ` I.N : 2 < 2 , @ h 2 j <.j : 2 : u 6 y ` X.2.",
"8.C H C w d d d - L V.L y y 1 k < 2 j < j a.j j 2 & 1 * * M E | e.Y a a - e L n - i t.p p z 7 h , 2 k < h a.j j 2 & 1 * * n E | ",
"x.} o.H t { o.| ) ...Xr.4.4.:.l.;.7.g.-.-.{.>.a./ ^ 4.X.) O.2.u.u.o.E I d R 0.R | ..-Xi.5.:.-.D.>.7.g.*.*.}.>.h./ ^ 4.X.) O.2.u.",
"9X#X#X9X9XeX@X!.$XM.%X$X[.5X5X<X,X'.{.U.,X>X>X%X<X<XeX=X=X X@X|.9X#X$X@X-XeX*XrX9X4X=X.X%X%X[.%X1X}.T.'.{.<X>X,X<X<XeX=X=X X@X|.",
"t F F H R x.R i L * A l p `  . .:.N k + 7 2 k u P P /.M I f r i d I G R J P.J J i n M y - ; + u  .N k 7 u k u 2 P P /.M I f r r ",
"w t t r d y.Y y 1 + 1 1 X P ` ` r.^ N , 7 u P k S z $X- y - = e % t = d w ~.b 5 e n n p +   1 ! 5.' l 1 , k P l S z $X- y - = e ",
"F b t r d 0.Y f p y p p $ f P M k.5.:.P P z ^ & 1 P =Xi.e.L - = G G G G b `.0.{ G I f L X X p / n.t. .P p N ^ 1 1 P <Xi.e.L - = ",
"9X|.~.|.|.0X-XqX&X=X=XrX(.oX_.^.I.I.^.V.I./.<Xr.H._._.(.b.y.!.*X9X!.oXB.!.9X*X#X4X9X.XrX/.H.].[.M.I.I.).I.[.&X:.H._._.(.b.y.!.*X",
"j.I 4 d y M - L p A A i.f Z a e - 4 6 y L X./.l X s y e.E y f Y C.Z { d i b G n f I f b.E z l 1 * 6 - f l 4.I.l X s y e.E y f Y ",
"j.} n n y M - l 1 s a C.L d a a n n y 6 f X./.y s P L | Y a G E C.Z ] Z 9 d i a = a y N.P p l * I I - 4 4 X./.f s P L | Y a G E ",
"m.6.` ` U t. .:.[  .( +X+.Y A Y E _ I ` r.].uXa.9.:.n.:. .E T E _.+.O.O.L i.e.e.E 9.| $X( l ^ M I ) L X.5..XtXr.9.:.n.:. .E T ^ ",
"J.l.G.S.:X6Xh.g.D.'.c.{.{.>X}.%XI.6.M.G.F.g.:XL.}.;XwX1X{.1X&X'.H.g.J.g.>XwXn.c.f.:.H.c.H.H.].).I.6.M.G.F.g.:XL.}.;XwX1X{.1X&X/.",
"V x W 2 ~ h.N W Q W x =.*.&.Q -.-.k ! ~ V c 1.#.$.#.A.=.W / W z x x W 2  .g.j 1 k : P p P ^ 9.r.X.k ! ~ V c 1.#.$.#.A.=.W / W z ",
"l B W 1 P a.^ ^ / N x -.*.*.*.g.5.! ' ~ V V 1.#.$.=.Z.>.P W N l p z ( 7 P r.l 1 *   6 X & y ( ` 5.! ' ~ V V 1.#.$.=.Z.>.P W N l ",
"t.i.M.t.b.).n.k.n.d.n.n.a.g.F.%XU.d.l.d.a.Z.Z.1.G.T.3X>XU.).I.M.i.i.N.r.b.(.i.e.X.X.b.| U ` r.t.I.d.l.d.a.Z.Z.1.G.T.3X>XU.).I.M.",
"`.B.!.~.!.^.m.M./..XwX].d.l.F.U.Y.l.F.F.T.2XJ.g.h.h.J.H.M._.).(.|.B.!.!.!.!.B.V.^..XeX.XM.z.I.F.Y.l.F.F.T.2XJ.g.h.h.J.H.M._.).(.",
"o.F t d w = 4 y 6 P I.! + , , o < + < < x 7.j > g : u 6 y ) ..2.o.C t F t = w y 5 U M.U 6 * 6 , 8 + < < x 7.j > g : u 6 y ) ..2.",
"q.J d d 0 e I f * 6 M.! : 7 h , < , 7 , h 7.u u 2 & 6 * ; n _ } q.J C F e w G f ; M f.M 6 8 j , < , 7 , h 7.u u 2 & 6 * ; n _ } ",
"x.8.] J d R e.U :.' XXd./ ;.7.7.d.d.d.-.-.[.>.a.' ^ 4.X.) 3.2.u.v.8.] R C Y 0.{ E 4.[.5.-.>.d.;.d.d.d.-.-.[.>.a.' ^ 4.X.) 3.2.u.",
"7X7X*X#X0X=XN.H./.[.J.'.2X:X2X2X6X}.Y./.>XqX,X%X=X<XeX*X*X|.@X|.7X#XOX7X7XrX0XqXqX%X,XJ.}.1X:X6X1X].U./.%X5X,X%X=X<XeX*X*X|.@X|.",
"Z Y Y Z +.y.E ( ^  .W / =.~ @.@.-.N < * 2 l l p L U (.n I b r t C Y Z Y Y N.- y q 2 x 2 > 2 O 2 >.N 7 , 7 z l p L U (.n I b r r ",
"= 9 y ; A 9.[ ( ( ~ z / *.%.<.<.:.! k 6 7 M P p L M $X- y - = e # C a 9 a ^.. X 1 & 3 $ o O > @.:.! k 6 7 M P p L M $X- y - = e ",
"Y Z A a E p.e.e.r.r./ a.>.>.g.g.l.t.X.` P U ^ ; 1 L =Xi.e.L - - G Y H f Y oXL T S q 3 2 o O v >.g.t.X.^ M P U ; 1 L =Xi.e.L - - ",
"0X^.E.^._.=X&XqX8X<X$XwX]././.H./.).I./.H._.=Xr.V._._.(.b.y.E.=X0X~.`.!.`.9XqX$X8X&X+XwX/.D.D./.].]././.H.[.=Xt.V._._.(.b.y.E.=X",
"C.I G G f f s L s L L b.L f y * 1 6 * p p :.^.L   s y e.( y A Y B.F H H d e { d L L Y N.T A s q 1 y * p f 4.^.L   s y e.( y A T ",
"v.I G d 5 i e e = e a v.G I G a M M 1 p y O.^.y s L L  .T s A E v.b J F e i t a 9 a a x.f A Y A l M 1 y 6 X.I.y s L L  .T s A ( ",
"V.O.O.| ) u.i.0.O.+.| _.E { | | ^ X.U :.4..XtXr.e.:.n.:. .( T ^ ^.o.2.) E C.L i.E O.O.+X[ [ +.L ` X.U :.5..XtXt.e.:.n.:. .( T ^ ",
"F.H.n.H.%XH.,.,. .f.,.9.a.n.9.[./.d.F.F.F.g.>XJ.'.{.wX1X{.1X>X'.H.c.J.D.>X8Xh.g.J.K.h.>X>X>X}.{.Y.d.F.F.F.g.>XJ.'.{.wX1X{.1X>X'.",
"j W x k /  .x 7 o 2 3 j j j $ W -.k ! V z x >.@./ *.g.-.W / W z W c W g / h.D Q W W z 1.Q Q Q s.%.k ! V N x >.@./ *.g.-.W / W z ",
"p ^ M 1 l P u X   X   . . o o  .5.! %.! N V ;.@./ =.Z.>.P W z l l z W 1 P a./ ~ *.W k @./ *.=.l.7.! %.! N V ;.@./ =.Z.>.P W z l ",
"y.V.V.b.V._.I.e.` X.:.u 1 (  .].Y.l.S.d.a.l.Z.7.G.T.1X>XU.].H.M.i.i.M.t.b.).n.f.n.l.l.f.h.G.G.T.U.l.S.d.a.l.Z.7.G.T.1X>XU.].H.M.",
"!.B.B.C.B.!.B.u.m..XeXH.t.H.k.U.U.S.J.D.G.:XG.h.h.h.U.H.F._.).^.`.B.!.!.!.!.b.M.M.<XtX[.d.l.F.U.U.S.J.D.G.:XG.h.h.h.U.H.F._.).^.",
"q.] F F w 5 e 5 = I I.M * p + + , @ h 2 x <.j : 2 : u 6 y ` X.2.o.b r b 5 = 4 y * ` I.M * 7 , 1 , @ h 2 j <.j : 2 : u 6 y ` X.2.",
"w.K w w % w G G 4 6 M.M , k 6 x , 2 k < h 7.j j 2 & 1 * * M E } q.J m t 5 e L n - p t.p p z 7 7 , 2 k < h a.j j 2 & 1 * * M E | ",
"v.} } ] F ] o.{ +.U %Xt.:.5.-.S.;.a.g.*.-.}.>.h./ ^ 4.X.) O.2.u.j.3._ J d R 0.E | X.%Xf.5.:.-.D.>.a.g.*.-.}.>.h./ ^ 4.X.) O.2.u.",
"7X#X7X#X*XeX-XrX=X=X/./.XX].>X2X1X}.T.T.{.<X>X,X<X<XeX=X=X X@X|.*X#X*X*X*XeX*XrX<X<X/./.%X'.>X1X1X}.T.T.{.<X>X,X<X<XeX=X=X X@X|.",
"C H H ] Y V.a 9 1 s : 2 7 O : > -.N k 7 u k u 2 P P /.l I f r r d J G R I N.y 1 1 s : 2 7 O : > -.N k 7 u k u 2 P P /.l I f r r ",
"% t ; a 9 E.9 . & &   X o o g W 5.' l 1 , k P l S z $X- y - = e % e ; y 9 R.- . & &   o o o v W 5.' l 1 , k P l S z $X- y - = e ",
"Y Z a Z Y +X+.s s 1   & o o z ' n.t. .P p N ^ 1 1 P =Xi.e.L - = Y G a f L +X .f s 1   & o o x  .n.t. .P p N ^ 1 1 P =Xi.e.L - = ",
"0X!.`.N.^.0X=X+X8X&X[.wX[.W.W.W.M.I.I.).I.[.&X:.H._._.(.b.y.!.*X0X^.`.B.^.0X=X[.<X&X_.wX[./.U.U.M.I.I.).I.[.&X:.H._._.(.b.y.!.*X",
"B.Z | a a f Z Z Y L A N.[ Y s 9 * 6 - f l 4.I.l X s y e.E y f Y B.Z | a a f f f L L M N.U L p 6 * 6 - f l 4.I.l X s y e.E y f Y ",
"C.f E Z 9 f a a 9 9 9 x.Z Z Z f I I - 4 4 X./.f s P L | Y a G E B.Z E Z 9 f y y 4 - - i.f f f i I I - 4 4 X./.f s P L | Y a G E ",
"`.} o.O.I x.0.8.| o.+.#X{ R Y G I ) L ..5..XtXt.e.:.N.O.+.E Y { `.o.o.8.Y x.0.0.{ | o.@X) R L n I ) L ..5..XtXt.e.:.N.O.+.E Y { "
};
